<svg width="97" height="32" viewBox="0 0 97 32" fill="none" xmlns="http://www.w3.org/2000/svg">
<rect width="97" height="32" rx="16" fill="#FCFCFC" fill-opacity="0.3"/>
<path fill-rule="evenodd" clip-rule="evenodd" d="M17.3125 8.48959C16.9444 8.48959 16.6459 8.78806 16.6459 9.15625C16.6459 9.52444 16.9444 9.82292 17.3125 9.82292H19.3735L19.9132 12.5192C19.9161 12.538 19.9198 12.5565 19.9243 12.5748L21.0131 18.0146L21.0132 18.0151C21.1034 18.4685 21.3501 18.8757 21.7102 19.1656C22.0685 19.4541 22.5165 19.608 22.9764 19.6009H29.3011C29.761 19.608 30.209 19.4541 30.5673 19.1656C30.9276 18.8756 31.1743 18.4681 31.2644 18.0146L31.2644 18.0146L31.2654 18.0096L32.3084 12.5404C32.3456 12.3453 32.2938 12.1437 32.1672 11.9906C32.0405 11.8375 31.8522 11.7489 31.6535 11.7489H21.1188L20.5737 9.02541C20.5113 8.71384 20.2377 8.48959 19.92 8.48959H17.3125ZM22.3207 17.7538L21.3857 13.0822H30.8477L29.9562 17.7569C29.9268 17.9027 29.8472 18.0336 29.7313 18.1269C29.6148 18.2207 29.4691 18.2705 29.3196 18.2676L29.3196 18.2675H29.3068H22.9707V18.2674L22.9579 18.2676C22.8084 18.2705 22.6627 18.2207 22.5462 18.1269C22.4298 18.0332 22.35 17.9015 22.3209 17.7548L22.3207 17.7538ZM21.2104 22.1936C21.2104 21.4657 21.8005 20.8755 22.5285 20.8755C23.2564 20.8755 23.8466 21.4657 23.8466 22.1936C23.8466 22.9216 23.2564 23.5117 22.5285 23.5117C21.8005 23.5117 21.2104 22.9216 21.2104 22.1936ZM28.3804 22.1936C28.3804 21.4657 28.9705 20.8755 29.6985 20.8755C30.4264 20.8755 31.0166 21.4657 31.0166 22.1936C31.0166 22.9216 30.4264 23.5117 29.6985 23.5117C28.9705 23.5117 28.3804 22.9216 28.3804 22.1936Z" fill="#2D3440"/>
<path d="M48.8494 10.8182H41.2528V21H42.4858V11.9119H47.6165V21H48.8494V10.8182ZM51.9331 23.8636C52.992 23.8636 53.7377 23.3018 54.1802 22.1136L57.4316 13.3835L56.149 13.3636L54.041 19.4489H53.9615L51.8535 13.3636H50.5808L53.4047 21.0398L53.1859 21.6364C52.7583 22.7997 52.2314 22.9091 51.3762 22.6903L51.0779 23.7244C51.1973 23.7841 51.5353 23.8636 51.9331 23.8636ZM61.8129 21.1591C63.5032 21.1591 64.6168 20.125 64.8157 18.7727H63.6424C63.4237 19.608 62.7276 20.1051 61.8129 20.1051C60.4208 20.1051 59.5259 18.9517 59.5259 17.1818C59.5259 15.4517 60.4407 14.3182 61.8129 14.3182C62.8469 14.3182 63.4634 14.9545 63.6424 15.6506H64.8157C64.6168 14.2188 63.4038 13.2642 61.793 13.2642C59.7248 13.2642 58.3526 14.8949 58.3526 17.2216C58.3526 19.5085 59.6651 21.1591 61.8129 21.1591ZM65.9293 14.4574H68.4549V21H69.6282V14.4574H72.1339V13.3636H65.9293V14.4574ZM76.5511 21.1591C78.6193 21.1591 80.0114 19.5881 80.0114 17.2216C80.0114 14.8352 78.6193 13.2642 76.5511 13.2642C74.483 13.2642 73.0909 14.8352 73.0909 17.2216C73.0909 19.5881 74.483 21.1591 76.5511 21.1591ZM76.5511 20.1051C74.9801 20.1051 74.2642 18.7528 74.2642 17.2216C74.2642 15.6903 74.9801 14.3182 76.5511 14.3182C78.1222 14.3182 78.8381 15.6903 78.8381 17.2216C78.8381 18.7528 78.1222 20.1051 76.5511 20.1051Z" fill="#2D3440"/>
</svg>
