<svg width="90" height="32" viewBox="0 0 90 32" fill="none" xmlns="http://www.w3.org/2000/svg">
<path fill-rule="evenodd" clip-rule="evenodd" d="M26.2084 8.875C26.2084 8.50681 26.5069 8.20833 26.875 8.20833H29.875C30.4497 8.20833 31.0008 8.43661 31.4071 8.84293C31.8134 9.24926 32.0417 9.80036 32.0417 10.375V20.875C32.0417 21.4496 31.8134 22.0007 31.4071 22.4071C31.0008 22.8134 30.4497 23.0417 29.875 23.0417H26.875C26.5069 23.0417 26.2084 22.7432 26.2084 22.375C26.2084 22.0068 26.5069 21.7083 26.875 21.7083H29.875C30.0961 21.7083 30.308 21.6205 30.4643 21.4643C30.6206 21.308 30.7084 21.096 30.7084 20.875V10.375C30.7084 10.154 30.6206 9.94202 30.4643 9.78574C30.308 9.62946 30.0961 9.54167 29.875 9.54167H26.875C26.5069 9.54167 26.2084 9.24319 26.2084 8.875ZM22.6536 11.4036C22.9139 11.1432 23.3361 11.1432 23.5964 11.4036L27.3418 15.149C27.4652 15.27 27.5417 15.4386 27.5417 15.625C27.5417 15.8114 27.4652 15.98 27.3418 16.101L23.5964 19.8464C23.3361 20.1068 22.9139 20.1068 22.6536 19.8464C22.3932 19.5861 22.3932 19.1639 22.6536 18.9036L25.2655 16.2917H17.875C17.5069 16.2917 17.2084 15.9932 17.2084 15.625C17.2084 15.2568 17.5069 14.9583 17.875 14.9583H25.2655L22.6536 12.3464C22.3932 12.0861 22.3932 11.6639 22.6536 11.4036Z" fill="#2D3440"/>
<path d="M41.233 21H44.9119C47.3182 21 48.3125 19.8267 48.3125 18.2955C48.3125 16.6847 47.1989 15.8097 46.2642 15.75V15.6506C47.1392 15.4119 47.9148 14.8352 47.9148 13.5227C47.9148 12.0312 46.9205 10.8182 44.7926 10.8182H41.233V21ZM42.4659 19.9062V16.3665H44.9716C46.304 16.3665 47.1392 17.2614 47.1392 18.2955C47.1392 19.1903 46.5227 19.9062 44.9119 19.9062H42.4659ZM42.4659 15.2926V11.9119H44.7926C46.1449 11.9119 46.7415 12.6278 46.7415 13.5227C46.7415 14.5966 45.8665 15.2926 44.7528 15.2926H42.4659ZM51.0543 13.3636H49.7021L52.1282 17.1818L49.7021 21H51.0543L52.8839 18.0369L54.7134 21H56.0657L53.5998 17.1818L56.0657 13.3636H54.7134L52.8839 16.4858L51.0543 13.3636ZM60.5277 21.1591C62.5959 21.1591 63.9879 19.5881 63.9879 17.2216C63.9879 14.8352 62.5959 13.2642 60.5277 13.2642C58.4595 13.2642 57.0675 14.8352 57.0675 17.2216C57.0675 19.5881 58.4595 21.1591 60.5277 21.1591ZM60.5277 20.1051C58.9567 20.1051 58.2408 18.7528 58.2408 17.2216C58.2408 15.6903 58.9567 14.3182 60.5277 14.3182C62.0987 14.3182 62.8146 15.6903 62.8146 17.2216C62.8146 18.7528 62.0987 20.1051 60.5277 20.1051ZM64.9636 23.1875H66.1369V21H71.7846V23.1875H72.9579V19.9062H71.7846V13.3636H66.9324L66.6738 16.3864C66.4899 18.5241 66.2164 19.2599 65.6 19.9062H64.9636V23.1875ZM66.9324 19.9062C67.4693 19.2003 67.6632 17.9822 67.8272 16.3864L68.0261 14.4574H70.6113V19.9062H66.9324Z" fill="#2D3440"/>
</svg>
